<svg width="24" height="24" viewBox="0 0 24 24" fill="none" xmlns="http://www.w3.org/2000/svg">
<g clip-path="url(#clip0_4777_16512)">
<path fill-rule="evenodd" clip-rule="evenodd" d="M4.22222 22H19.7778C21.0051 22 22 21.0051 22 19.7778V4.22222C22 2.99492 21.0051 2 19.7778 2H4.22222C2.99492 2 2 2.99492 2 4.22222V19.7778C2 21.0051 2.99492 22 4.22222 22Z" fill="black" fill-opacity="0.4"/>
<path fill-rule="evenodd" clip-rule="evenodd" d="M19.2218 19.2218H16.2539V14.1668C16.2539 12.7809 15.7273 12.0064 14.6303 12.0064C13.437 12.0064 12.8135 12.8124 12.8135 14.1668V19.2218H9.95327V9.59216H12.8135V10.8893C12.8135 10.8893 13.6735 9.29796 15.7169 9.29796C17.7595 9.29796 19.2218 10.5453 19.2218 13.1249V19.2218ZM6.54105 8.33124C5.5668 8.33124 4.77734 7.53558 4.77734 6.55429C4.77734 5.573 5.5668 4.77734 6.54105 4.77734C7.5153 4.77734 8.30429 5.573 8.30429 6.55429C8.30429 7.53558 7.5153 8.33124 6.54105 8.33124ZM5.06416 19.2218H8.04662V9.59216H5.06416V19.2218Z" fill="white"/>
</g>
<defs>
<clipPath id="clip0_4777_16512">
<rect width="20" height="20" fill="white" transform="translate(2 2)"/>
</clipPath>
</defs>
</svg>
