<svg width="24" height="24" viewBox="0 0 24 24" fill="none" xmlns="http://www.w3.org/2000/svg">
<mask id="mask0_4882_25237" style="mask-type:alpha" maskUnits="userSpaceOnUse" x="0" y="0" width="24" height="24">
<rect width="24" height="24" fill="#D9D9D9"/>
</mask>
<g mask="url(#mask0_4882_25237)">
<path d="M10.0303 12L17.154 19.124C17.4607 19.4305 17.6122 19.7975 17.6085 20.225C17.6049 20.6525 17.445 21.0243 17.129 21.3403C16.8225 21.6468 16.4555 21.8 16.028 21.8C15.6005 21.8 15.2335 21.6468 14.927 21.3403L7.43902 13.8773C7.17302 13.6113 6.97586 13.3156 6.84752 12.9903C6.71936 12.6649 6.65527 12.3348 6.65527 12C6.65527 11.6652 6.71936 11.3351 6.84752 11.0098C6.97586 10.6844 7.17302 10.3888 7.43902 10.1228L14.927 2.64901C15.2335 2.34234 15.6024 2.18851 16.0335 2.18751C16.4647 2.18634 16.8382 2.34376 17.154 2.65976C17.4607 2.96626 17.614 3.33567 17.614 3.76801C17.614 4.20017 17.4607 4.56951 17.154 4.87601L10.0303 12Z" fill="black" fill-opacity="0.8"/>
</g>
</svg>
