<svg width="960" height="600" viewBox="0 0 960 600" fill="none" xmlns="http://www.w3.org/2000/svg">
<g clip-path="url(#clip0_204_625)">
<line x1="426.396" y1="197.627" x2="542.396" y2="146.627" stroke="#2191FB" stroke-width="3"/>
<path d="M430 207L429.235 224.304L444.603 216.314L430 207ZM479.881 299.69L437.558 218.286L434.896 219.67L477.219 301.074L479.881 299.69Z" fill="#2191FB"/>
<line x1="425.543" y1="198.398" x2="309.543" y2="243.398" stroke="#2191FB" stroke-width="3"/>
<mask id="path-4-inside-1_204_625" fill="white">
<path d="M702.449 402.283C722.777 358.188 729.574 309.055 721.978 261.097C714.383 213.14 692.737 168.512 659.778 132.856C626.819 97.2005 584.027 72.1192 536.813 60.7838C489.6 49.4484 440.085 52.368 394.531 69.1735C348.976 85.9789 309.428 115.915 280.888 155.197C252.348 194.479 236.096 241.342 234.19 289.86C232.283 338.378 244.806 386.371 270.176 427.772C295.546 469.172 332.623 502.12 376.718 522.448L479.5 299.5L702.449 402.283Z"/>
</mask>
<path d="M702.449 402.283C722.777 358.188 729.574 309.055 721.978 261.097C714.383 213.14 692.737 168.512 659.778 132.856C626.819 97.2005 584.027 72.1192 536.813 60.7838C489.6 49.4484 440.085 52.368 394.531 69.1735C348.976 85.9789 309.428 115.915 280.888 155.197C252.348 194.479 236.096 241.342 234.19 289.86C232.283 338.378 244.806 386.371 270.176 427.772C295.546 469.172 332.623 502.12 376.718 522.448L479.5 299.5L702.449 402.283Z" stroke="#254441" stroke-width="6" mask="url(#path-4-inside-1_204_625)"/>
<path d="M465.136 260.565L509.285 311.428L464.597 327.914L465.136 260.565Z" fill="#FFE8C5"/>
<path d="M552.224 107.021L561.669 173.707L515.193 163.278L552.224 107.021Z" fill="#7A9B76"/>
<path d="M319.738 203.274L326.043 270.329L280.108 257.731L319.738 203.274Z" fill="#7A9B76"/>
<path d="M120.418 107.637L160.792 161.545L115.034 174.772L120.418 107.637Z" fill="#DB504A"/>
<path d="M760.418 168.637L800.792 222.545L755.034 235.772L760.418 168.637Z" fill="#DB504A"/>
<path d="M157.954 351.177L159.382 418.513L114.48 402.618L157.954 351.177Z" fill="#DB504A"/>
<path d="M570.954 409.177L572.382 476.513L527.48 460.618L570.954 409.177Z" fill="#DB504A"/>
<circle cx="426.5" cy="198.5" r="7.5" fill="#2191FB"/>
</g>
<defs>
<clipPath id="clip0_204_625">
<rect width="960" height="600" fill="white"/>
</clipPath>
</defs>
</svg>
