<svg width="960" height="600" viewBox="0 0 960 600" fill="none" xmlns="http://www.w3.org/2000/svg">
<g clip-path="url(#clip0_204_664)">
<line x1="478.517" y1="299.776" x2="497.517" y2="173.776" stroke="#2191FB" stroke-width="3"/>
<path d="M456 434L467.036 420.65L449.957 417.768L456 434ZM477.071 300.133L456.767 420.439L459.726 420.938L480.029 300.632L477.071 300.133Z" fill="#2191FB"/>
<mask id="path-3-inside-1_204_664" fill="white">
<path d="M702.449 402.283C722.777 358.188 729.574 309.055 721.978 261.097C714.383 213.14 692.737 168.512 659.778 132.856C626.819 97.2005 584.027 72.1192 536.813 60.7838C489.6 49.4484 440.085 52.368 394.531 69.1735C348.976 85.9789 309.428 115.915 280.888 155.197C252.348 194.479 236.096 241.342 234.19 289.86C232.283 338.378 244.806 386.371 270.176 427.772C295.546 469.172 332.623 502.12 376.718 522.448L479.5 299.5L702.449 402.283Z"/>
</mask>
<path d="M702.449 402.283C722.777 358.188 729.574 309.055 721.978 261.097C714.383 213.14 692.737 168.512 659.778 132.856C626.819 97.2005 584.027 72.1192 536.813 60.7838C489.6 49.4484 440.085 52.368 394.531 69.1735C348.976 85.9789 309.428 115.915 280.888 155.197C252.348 194.479 236.096 241.342 234.19 289.86C232.283 338.378 244.806 386.371 270.176 427.772C295.546 469.172 332.623 502.12 376.718 522.448L479.5 299.5L702.449 402.283Z" stroke="#254441" stroke-width="6" mask="url(#path-3-inside-1_204_664)"/>
<mask id="path-4-inside-2_204_664" fill="white">
<path d="M613.608 361.421C625.82 334.932 629.903 305.417 625.34 276.607C620.777 247.797 607.774 220.988 587.975 199.568C568.175 178.149 542.469 163.082 514.106 156.272C485.743 149.463 455.998 151.217 428.632 161.312C401.266 171.408 377.509 189.392 360.364 212.989C343.219 236.587 333.456 264.739 332.311 293.885C331.165 323.032 338.688 351.863 353.929 376.733C369.169 401.604 391.442 421.397 417.932 433.609L479.676 299.677L613.608 361.421Z"/>
</mask>
<path d="M613.608 361.421C625.82 334.932 629.903 305.417 625.34 276.607C620.777 247.797 607.774 220.988 587.975 199.568C568.175 178.149 542.469 163.082 514.106 156.272C485.743 149.463 455.998 151.217 428.632 161.312C401.266 171.408 377.509 189.392 360.364 212.989C343.219 236.587 333.456 264.739 332.311 293.885C331.165 323.032 338.688 351.863 353.929 376.733C369.169 401.604 391.442 421.397 417.932 433.609L479.676 299.677L613.608 361.421Z" stroke="#2191FB" stroke-width="6" mask="url(#path-4-inside-2_204_664)"/>
<path d="M465.136 260.565L509.285 311.428L464.597 327.914L465.136 260.565Z" fill="#FFE8C5"/>
<path d="M508.224 133.021L517.669 199.707L471.193 189.278L508.224 133.021Z" fill="#7A9B76"/>
<path d="M301.738 197.274L308.043 264.329L262.108 251.731L301.738 197.274Z" fill="#7A9B76"/>
<path d="M120.418 107.637L160.792 161.545L115.034 174.772L120.418 107.637Z" fill="#DB504A"/>
<path d="M760.418 168.637L800.792 222.545L755.034 235.772L760.418 168.637Z" fill="#DB504A"/>
<path d="M157.954 351.177L159.382 418.513L114.48 402.618L157.954 351.177Z" fill="#DB504A"/>
<path d="M570.954 409.177L572.382 476.513L527.48 460.618L570.954 409.177Z" fill="#DB504A"/>
</g>
<defs>
<clipPath id="clip0_204_664">
<rect width="960" height="600" fill="white"/>
</clipPath>
</defs>
</svg>
