<svg width="960" height="600" viewBox="0 0 960 600" fill="none" xmlns="http://www.w3.org/2000/svg">
<g clip-path="url(#clip0_207_1273)">
<path fill-rule="evenodd" clip-rule="evenodd" d="M594 387.281L550.302 431.704L586.357 369.256L584.625 368.256L584.625 368.256L582.893 367.257L546.95 429.511L564.886 360.3L562.95 359.798L561.014 359.296L543 428.809V357H541H539V430.119L519.34 359.091L517.412 359.625L538.788 436.852L538.787 436.85L517.412 359.626L515.484 360.159L534.801 429.946L498.607 367.256L496.875 368.256L536.836 437.471L536.835 437.47L496.875 368.257L495.143 369.257L531.49 432.212L479.665 381.234L478.263 382.66L478.263 382.66L476.861 384.086L528.469 434.85L465.756 398.643L464.756 400.375L464.756 400.375L463.757 402.107L525.959 438.02L456.441 420.005L455.939 421.941L455.438 423.877L525.373 442H453V444V446H526.803L455.717 465.676L456.25 467.604L533.183 446.309L533.182 446.31L456.251 467.604L456.785 469.532L526.277 450.296L463.756 486.393L464.756 488.125L533.961 448.17L533.962 448.169L464.757 488.125L465.757 489.857L529.039 453.321L477.859 505.351L479.285 506.753L479.286 506.753L480.711 508.155L531.15 456.879L495.143 519.244L496.875 520.244L496.875 520.244L498.607 521.243L535.692 457.01L517.114 528.7L519.05 529.202L520.986 529.704L539 460.191V532H541H543V459.567L562.302 529.299L564.229 528.766L543.042 452.22L543.042 452.221L564.23 528.765L566.157 528.231L547.029 459.126L582.893 521.244L584.625 520.244L544.902 451.442L544.902 451.44L584.625 520.243L586.357 519.243L549.678 455.713L594 499.311V493.701L553.643 454.003L594 477.303V472.685L553.458 449.278L594 459.784V455.652L556.754 446H594V442H556.25L594 431.551V429.476L548.753 442H548.751L594 429.475V427.4L555.457 438.069L594 415.816V413.506L547.773 440.195L547.772 440.196L594 413.506V411.196L552.539 435.134L594 392.984V387.281Z" fill="#DB504A"/>
<path d="M543 357V428.809L561.014 359.296L564.886 360.3L546.95 429.511L582.893 367.257L584.625 368.256L586.357 369.256L550.302 431.704L548 436L553.5 450.296L549.678 455.713L586.357 519.243L584.625 520.243L582.893 521.244L547.029 459.126L566.157 528.231L564.23 528.765L562.302 529.299L543 459.567V532H539V460.191L520.986 529.704L517.114 528.7L535.692 457.01L498.607 521.243L496.875 520.244L495.143 519.244L531.15 456.879L480.711 508.155L479.286 506.753L477.859 505.351L529.039 453.321L465.757 489.857L464.757 488.125L463.756 486.393L526.277 450.296L456.785 469.532L456.251 467.604L455.717 465.676L526.803 446H453V442H525.373L455.438 423.877L456.441 420.005L525.959 438.02L463.757 402.107L464.756 400.375L465.756 398.643L528.469 434.85L476.861 384.086L478.263 382.66L479.665 381.234L531.49 432.212L495.143 369.257L496.875 368.257L498.607 367.256L534.801 429.946L515.484 360.159L517.412 359.626L519.34 359.091L539 430.119V357H543Z" fill="#2191FB"/>
<rect x="-101.5" y="-41.5" width="442" height="252" stroke="#254441" stroke-width="3"/>
<rect x="595.5" y="-95.5" width="411" height="783" stroke="#254441" stroke-width="3"/>
<path d="M526.8 405.518L570.949 456.382L526.261 472.867L526.8 405.518Z" fill="#FFE8C5"/>
</g>
<defs>
<clipPath id="clip0_207_1273">
<rect width="960" height="600" fill="white"/>
</clipPath>
</defs>
</svg>
