<svg width="960" height="600" viewBox="0 0 960 600" fill="none" xmlns="http://www.w3.org/2000/svg">
<g clip-path="url(#clip0_206_678)">
<rect x="-101.5" y="-41.5" width="442" height="252" stroke="#254441" stroke-width="3"/>
<rect x="564.5" y="-95.5" width="442" height="252" stroke="#254441" stroke-width="3"/>
<path d="M565.698 158L540.813 416.362L536.918 -31.418L533.918 -31.3919L537.814 416.546L487.135 -28.3745L484.154 -28.035L534.852 417.044L437.942 -20.1443L435.014 -19.4951L531.956 417.842L389.88 -6.81682L387.035 -5.86498L529.163 418.952L343.474 11.4615L342 12.1331V15.4619L526.493 420.326L342 107.098V113.009L523.996 421.998L342 176.029V181.073L521.672 423.901L327.512 212H323.443L519.571 426.048L277.647 212H273.119L517.694 428.394L214.339 212H209.173L516.091 430.935L129.15 212H125.447L124.868 213.024L514.73 433.612L104.09 255.047L102.893 257.798L513.7 436.436L86.6209 301.764L85.7187 304.626L512.935 439.34L74.1322 350.051L73.534 352.991L512.498 442.312L66.7573 399.38L66.4697 402.366L512.361 445.313L64.5811 449.208L64.6072 452.208L512.554 448.312L67.6249 498.992L67.9644 501.973L513.034 451.276L75.8547 548.183L76.5039 551.112L513.85 454.168L89.1825 596.246L90.1343 599.091L514.951 456.963L107.461 642.653L108.705 645.383L516.342 459.626L130.49 686.895L132.013 689.48L517.982 462.142L158.017 728.486L159.802 730.898L519.903 464.453L189.741 766.973L191.768 769.184L542.739 447.597L542.762 447.587L542.759 447.579L542.854 447.493L543.017 447.396L542.998 447.364L543.25 447.178L543.228 447.149L543.459 446.938L541.804 445.132L1015.37 490.746L1015.66 487.76L569.76 444.812L1017.55 440.917L1017.52 437.917L569.58 441.813L1014.5 391.134L1014.16 388.153L569.076 438.852L1006.27 341.941L1005.62 339.012L568.304 435.95L992.943 293.881L992.942 293.88L992.945 293.879L991.993 291.034L567.183 433.16L974.667 247.473L973.423 244.743L565.794 430.496L951.638 203.232L950.115 200.647L564.13 427.994L924.11 161.639L922.326 159.227L562.234 425.665L854.356 158H849.915L560.087 423.563L795.05 158H791.045L557.733 421.696L745.837 158H742.152L555.201 420.08L703.488 158H700.042L552.511 418.742L665.894 158H662.622L549.699 417.685L631.586 158H628.44L546.778 416.972L599.474 158H596.413L543.814 416.495L568.712 158H565.698Z" fill="#2191FB"/>
<path d="M540.813 416.363L565.698 158H568.712L543.814 416.495L596.414 158H599.475L546.779 416.972L628.441 158H631.586L549.7 417.686L662.623 158H665.894L552.511 418.742L700.042 158H703.489L555.201 420.08L742.152 158H745.838L557.734 421.696L791.045 158H795.051L560.087 423.564L849.916 158H854.357L562.235 425.665L541.805 443.5V445.133L543.459 446.938L543.229 447.15L543.25 447.179L542.999 447.365L543.018 447.397L542.854 447.493L542.759 447.58L542.763 447.587L542.74 447.598L541.805 447.493L514.731 433.613L124.868 213.024L125.448 212H129.15L516.092 430.936L209.174 212H214.34L517.695 428.394L273.12 212H277.647L519.571 426.048L323.443 212H327.512L521.673 423.902L342 181.074V176.03L523.997 421.998L342 113.01V107.099L526.494 420.327L342 15.4623V12.1335L343.474 11.4619L529.164 418.952L538 438L540.813 416.363Z" fill="#DB504A"/>
<path d="M526.8 405.518L570.949 456.382L526.261 472.867L526.8 405.518Z" fill="#FFE8C5"/>
</g>
<defs>
<clipPath id="clip0_206_678">
<rect width="960" height="600" fill="white"/>
</clipPath>
</defs>
</svg>
